<?xml version="1.0" encoding="utf-8"?>
<!-- Generator: Adobe Illustrator 24.2.1, SVG Export Plug-In . SVG Version: 6.00 Build 0)  -->
<svg version="1.1" id="Calque_1" xmlns="http://www.w3.org/2000/svg" xmlns:xlink="http://www.w3.org/1999/xlink" x="0px" y="0px"
	 viewBox="0 0 140.85 137.53" style="enable-background:new 0 0 140.85 137.53;" xml:space="preserve">
<style type="text/css">
	.st0{fill:#020203;}
</style>
<path class="st0" d="M137.03,26.03c-17.36,0.94-34.91,2.98-52.34,6.32C79.83,20.3,73.72,8.98,65.32,0.89
	c-3.08-2.96-6.43,2.09-7,5.51c-1.81,11-3.09,22.11-4.26,33.25C36.88,44.59,20.01,50.97,3.75,59c-4.36,2.16-6.27,12.29-0.1,12.63
	c15.58,0.85,30.97,3.47,45.68,9.95c-0.81,5.81-1.74,11.6-2.88,17.32c-2,10.17-3.94,21.19-7.68,30.56c-0.49,1.22-0.36,2.36,0.07,3.11
	c-0.63,4.47,3.3,7.17,5.89,2.58c8.37-14.87,18.33-27.35,29.09-38.63c8.82,6.81,17.2,14.62,25.38,22.38c4.22,4.01,8.25-4.38,7.21-9
	c-2.73-12.08-5.47-24.16-8.57-36.09c13.46-11.86,27.29-23.22,40.24-35.97C141.01,34.96,142.86,25.71,137.03,26.03z M65.08,17.49
	c3.68,5.01,6.76,10.82,9.44,16.96c-4.02,0.88-8.03,1.84-12.02,2.89C63.29,30.7,64.11,24.08,65.08,17.49z M51.05,68.05
	c-7.59-3.19-15.41-5.34-23.32-6.79c8.24-3.22,16.58-6.07,24.99-8.55c-0.52,4.99-1.05,9.99-1.63,14.97
	C51.08,67.8,51.07,67.93,51.05,68.05z M51.37,108.25c0.37-1.28,0.71-2.57,1.03-3.89c1.53-6.38,2.82-12.85,3.93-19.38
	c3.09,1.67,6.13,3.51,9.12,5.51C60.43,96.01,55.67,101.89,51.37,108.25z M58.39,71.5c0.97-7.02,1.8-14.07,2.61-21.12
	c5.99-1.59,12.02-3.02,18.08-4.27c1.68,4.78,3.21,9.59,4.64,14.22c0.97,3.13,1.89,6.27,2.77,9.44c-1.12,1.01-2.24,2.03-3.35,3.06
	c-2.98,2.75-5.96,5.58-8.91,8.5C69.12,77.68,63.86,74.36,58.39,71.5z M82.64,87.71c2.28-2.18,4.58-4.34,6.91-6.46
	c1.31,5.15,2.55,10.33,3.74,15.52C89.79,93.63,86.24,90.59,82.64,87.71z M94.76,62.45c-1.11-3.87-2.26-7.71-3.48-11.53
	c-0.71-2.24-1.46-4.49-2.22-6.75c10.58-1.9,21.19-3.31,31.78-4.29C112.23,47.55,103.43,54.89,94.76,62.45z"/>
</svg>
